<?xml version="1.0" encoding="UTF-8" standalone="no"?>
<!-- Generator: Adobe Illustrator 27.5.0, SVG Export Plug-In . SVG Version: 6.00 Build 0)  -->

<svg
   version="1.1"
   x="0px"
   y="0px"
   viewBox="0 0 219.427 286.24686"
   xml:space="preserve"
   id="svg205"
   sodipodi:docname="28542128_7466301.svg"
   inkscape:version="1.2.2 (b0a84865, 2022-12-01)"
   width="219.427"
   height="286.24686"
   xmlns:inkscape="http://www.inkscape.org/namespaces/inkscape"
   xmlns:sodipodi="http://sodipodi.sourceforge.net/DTD/sodipodi-0.dtd"
   xmlns="http://www.w3.org/2000/svg"
   xmlns:svg="http://www.w3.org/2000/svg"><defs
   id="defs209" /><sodipodi:namedview
   id="namedview207"
   pagecolor="#ffffff"
   bordercolor="#000000"
   borderopacity="0.25"
   inkscape:showpageshadow="2"
   inkscape:pageopacity="0.0"
   inkscape:pagecheckerboard="0"
   inkscape:deskcolor="#d1d1d1"
   showgrid="false"
   inkscape:zoom="0.74920318"
   inkscape:cx="71.4092"
   inkscape:cy="150.82691"
   inkscape:window-width="1280"
   inkscape:window-height="666"
   inkscape:window-x="0"
   inkscape:window-y="25"
   inkscape:window-maximized="0"
   inkscape:current-layer="BACKGROUND" />
<g
   id="BACKGROUND"
   transform="translate(-140.2865,-96.734)">
	
</g>
<g
   id="OBJECTS"
   transform="translate(-140.287,-96.734)">
	<g
   id="g189">
		<path
   style="fill:#434a5b"
   d="M 318.931,254.346 256.426,139.911 153.136,329.014 h 206.578 z m -127.025,51.668 64.519,-118.123 64.52,118.123 z"
   id="path185" />
		<path
   style="fill:#e94f37;fill-opacity:1"
   d="m 342.517,248.402 c -9.883,23.861 -29.412,42.742 -53.692,51.783 l -32.4,-59.319 -32.403,59.325 c -15.615,-5.815 -29.267,-15.697 -39.649,-28.363 l -0.023,0.042 c -5.583,-6.81 -10.228,-14.419 -13.72,-22.638 l 0.027,-0.049 c -4.744,-11.163 -7.37,-23.435 -7.37,-36.309 0,-51.357 41.782,-93.14 93.139,-93.14 38.782,0 72.099,23.829 86.092,57.612 l 13.392,-24.342 c -20.353,-33.694 -57.33,-56.27 -99.484,-56.27 -64.04,0 -116.139,52.1 -116.139,116.14 0,22.192 6.26,42.947 17.102,60.6 l 0.015,-0.028 c 4.379,7.139 9.516,13.762 15.286,19.771 l -0.018,0.033 c 21.149,22.029 50.876,35.764 83.753,35.764 42.154,0 79.131,-22.576 99.484,-56.27 z"
   id="path187" />
	</g>
</g>
<g
   id="TEXTS"
   transform="translate(-140.2865,-96.734)">
	<g
   id="g202">
		<g
   id="g200">
			<text
   transform="translate(166.49452,382.5221)"
   id="text196"
   style="font-style:normal;font-variant:normal;font-weight:800;font-stretch:normal;font-family:Outfit;-inkscape-font-specification:'Outfit Ultra-Bold';white-space:pre;inline-size:193.422;display:inline"
   xml:space="preserve"><tspan
     x="0"
     y="0"
     id="tspan4802"><tspan
       style="font-size:41.7059px;fill:#3b4051"
       id="tspan4798">web</tspan><tspan
       style="font-size:41.7059px;fill:#e94f37"
       id="tspan4800">PMS</tspan></tspan></text>
			
				
		</g>
	</g>
</g>
</svg>
